<?xml version="1.0" encoding="UTF-8" standalone="no"?>
<svg
   width="24"
   height="24"
   viewBox="0 0 24 24"
   id="svg1"
   xmlns="http://www.w3.org/2000/svg">
  <defs
     id="defs1" />
  <path
     d="M 11.25,9.541 9,7.359 9.929,6.43 11.25,7.683 14.071,4.791 15,5.721 Z m 7.676,-3.819 c -0.482,1.41 -0.484,1.139 0,2.555 0.05,0.147 0.074,0.297 0.074,0.445 0,0.449 -0.222,0.883 -0.615,1.156 -1.256,0.87 -1.09,0.651 -1.562,2.067 -0.198,0.591 -0.77,0.99 -1.415,0.99 H 15.405 C 13.856,12.93 14.125,12.847 12.877,13.724 12.615,13.908 12.308,14 12,14 11.692,14 11.385,13.908 11.124,13.725 9.875,12.847 10.144,12.931 8.596,12.936 H 8.592 c -0.645,0 -1.216,-0.399 -1.413,-0.99 C 6.706,10.529 6.868,10.748 5.617,9.879 5.222,9.605 5,9.171 5,8.722 5,8.574 5.024,8.424 5.074,8.278 5.557,6.867 5.558,7.139 5.074,5.723 5.024,5.576 5,5.426 5,5.278 5,4.828 5.222,4.395 5.616,4.121 6.867,3.253 6.705,3.473 7.178,2.054 7.375,1.463 7.947,1.064 8.591,1.064 H 8.595 C 10.14,1.069 9.866,1.159 11.123,0.274 11.385,0.091 11.692,0 12,0 c 0.308,0 0.615,0.091 0.876,0.274 1.248,0.878 0.98,0.795 2.528,0.79 h 0.003 c 0.646,0 1.217,0.399 1.415,0.99 0.473,1.416 0.307,1.197 1.562,2.067 C 18.778,4.394 19,4.828 19,5.277 19,5.425 18.976,5.576 18.926,5.722 Z M 16.75,7 C 16.75,4.377 14.623,2.25 12,2.25 9.377,2.25 7.25,4.377 7.25,7 c 0,2.623 2.127,4.75 4.75,4.75 2.623,0 4.75,-2.128 4.75,-4.75 z M 9.365,14.931 C 8.599,14.931 7.994,14.857 7.492,14.718 7.184,17.786 6.133,20.088 4,22.31 4.854,22.417 5.95,22.216 6.833,21.75 7.15,22.386 7.483,23.18 7.6,24 9.609,21.701 10.866,18.946 11.334,15.929 10.391,15.748 10.1,15.433 9.365,14.931 Z m 5.27,0 c -0.737,0.507 -1.043,0.82 -1.968,0.998 0.47,3.017 1.726,5.772 3.733,8.071 0.116,-0.82 0.449,-1.614 0.767,-2.25 0.883,0.465 1.979,0.667 2.833,0.56 -2.13,-2.219 -3.168,-4.531 -3.479,-7.595 -0.503,0.141 -1.112,0.216 -1.886,0.216 z"
     id="path1" />
</svg>
